<svg width="128" height="44" viewBox="0 0 128 44" fill="none" xmlns="http://www.w3.org/2000/svg">
<path d="M15.28 19.968H17.512C23.32 19.968 26.224 17.208 26.224 11.688C26.224 5.976 23.32 3.12 17.512 3.12H15.28V19.968ZM15.28 40.56H19.312C22.192 40.56 24.472 39.816 26.152 38.328C27.832 36.84 28.672 34.68 28.672 31.848C28.672 27.864 27.688 25.128 25.72 23.64C23.752 22.152 21.04 21.408 17.584 21.408H15.28V40.56ZM0.88 42V40.56H4.48V3.12H0.88V1.68H19.024C24.976 1.68 29.344 2.592 32.128 4.416C34.96 6.24 36.376 8.736 36.376 11.904C36.376 14.448 35.536 16.536 33.856 18.168C32.224 19.752 30.016 20.544 27.232 20.544V20.976C30.688 20.976 33.592 21.912 35.944 23.784C38.296 25.608 39.472 28.224 39.472 31.632C39.472 35.04 38.104 37.632 35.368 39.408C32.632 41.136 28.72 42 23.632 42H0.88ZM78.4746 42C78.4746 40.896 78.1626 39.984 77.5386 39.264C76.9146 38.496 76.0986 38.112 75.0906 38.112C74.1306 38.112 73.1226 38.52 72.0666 39.336C71.0586 40.152 69.8586 40.992 68.4666 41.856C67.1226 42.672 65.4906 43.08 63.5706 43.08C57.0426 43.08 51.9786 41.4 48.3786 38.04C44.8266 34.68 43.0506 29.52 43.0506 22.56C43.0506 8.016 49.8426 0.743999 63.4266 0.743999C65.8746 0.743999 68.3706 1.344 70.9146 2.544C73.5066 3.744 75.0906 4.344 75.6666 4.344C76.2426 4.344 76.7226 4.056 77.1066 3.48C77.4906 2.856 77.6826 2.256 77.6826 1.68H79.0506V16.296H77.6106C77.6106 12.648 76.1706 9.384 73.2906 6.504C70.4586 3.624 67.1706 2.184 63.4266 2.184C60.5466 2.184 58.3626 3.744 56.8746 6.864C55.3866 9.936 54.6426 15.048 54.6426 22.2C54.6426 29.304 55.3866 34.32 56.8746 37.248C58.4106 40.176 60.6426 41.64 63.5706 41.64C68.1786 41.64 70.4826 37.536 70.4826 29.328V24H65.9466V22.56H83.2266V24H79.8426V42H78.4746ZM122.279 42C122.279 40.896 121.967 39.984 121.343 39.264C120.719 38.496 119.903 38.112 118.895 38.112C117.935 38.112 116.927 38.52 115.871 39.336C114.863 40.152 113.663 40.992 112.271 41.856C110.927 42.672 109.295 43.08 107.375 43.08C100.847 43.08 95.7833 41.4 92.1833 38.04C88.6313 34.68 86.8553 29.52 86.8553 22.56C86.8553 8.016 93.6473 0.743999 107.231 0.743999C109.679 0.743999 112.175 1.344 114.719 2.544C117.311 3.744 118.895 4.344 119.471 4.344C120.047 4.344 120.527 4.056 120.911 3.48C121.295 2.856 121.487 2.256 121.487 1.68H122.855V16.296H121.415C121.415 12.648 119.975 9.384 117.095 6.504C114.263 3.624 110.975 2.184 107.231 2.184C104.351 2.184 102.167 3.744 100.679 6.864C99.1913 9.936 98.4473 15.048 98.4473 22.2C98.4473 29.304 99.1913 34.32 100.679 37.248C102.215 40.176 104.447 41.64 107.375 41.64C111.983 41.64 114.287 37.536 114.287 29.328V24H109.751V22.56H127.031V24H123.647V42H122.279Z" fill="#FAA541"/>
</svg>
