<svg width="134" height="60" viewBox="0 0 134 60" fill="none" xmlns="http://www.w3.org/2000/svg">
<path d="M19.28 19.968H21.512C27.32 19.968 30.224 17.208 30.224 11.688C30.224 5.976 27.32 3.12 21.512 3.12H19.28V19.968ZM19.28 40.56H23.312C26.192 40.56 28.472 39.816 30.152 38.328C31.832 36.84 32.672 34.68 32.672 31.848C32.672 27.864 31.688 25.128 29.72 23.64C27.752 22.152 25.04 21.408 21.584 21.408H19.28V40.56ZM4.88 42V40.56H8.48V3.12H4.88V1.68H23.024C28.976 1.68 33.344 2.592 36.128 4.416C38.96 6.24 40.376 8.736 40.376 11.904C40.376 14.448 39.536 16.536 37.856 18.168C36.224 19.752 34.016 20.544 31.232 20.544V20.976C34.688 20.976 37.592 21.912 39.944 23.784C42.296 25.608 43.472 28.224 43.472 31.632C43.472 35.04 42.104 37.632 39.368 39.408C36.632 41.136 32.72 42 27.632 42H4.88ZM82.4746 42C82.4746 40.896 82.1626 39.984 81.5386 39.264C80.9146 38.496 80.0986 38.112 79.0906 38.112C78.1306 38.112 77.1226 38.52 76.0666 39.336C75.0586 40.152 73.8586 40.992 72.4666 41.856C71.1226 42.672 69.4906 43.08 67.5706 43.08C61.0426 43.08 55.9786 41.4 52.3786 38.04C48.8266 34.68 47.0506 29.52 47.0506 22.56C47.0506 8.016 53.8426 0.743999 67.4266 0.743999C69.8746 0.743999 72.3706 1.344 74.9146 2.544C77.5066 3.744 79.0906 4.344 79.6666 4.344C80.2426 4.344 80.7226 4.056 81.1066 3.48C81.4906 2.856 81.6826 2.256 81.6826 1.68H83.0506V16.296H81.6106C81.6106 12.648 80.1706 9.384 77.2906 6.504C74.4586 3.624 71.1706 2.184 67.4266 2.184C64.5466 2.184 62.3626 3.744 60.8746 6.864C59.3866 9.936 58.6426 15.048 58.6426 22.2C58.6426 29.304 59.3866 34.32 60.8746 37.248C62.4106 40.176 64.6426 41.64 67.5706 41.64C72.1786 41.64 74.4826 37.536 74.4826 29.328V24H69.9466V22.56H87.2266V24H83.8426V42H82.4746ZM126.279 42C126.279 40.896 125.967 39.984 125.343 39.264C124.719 38.496 123.903 38.112 122.895 38.112C121.935 38.112 120.927 38.52 119.871 39.336C118.863 40.152 117.663 40.992 116.271 41.856C114.927 42.672 113.295 43.08 111.375 43.08C104.847 43.08 99.7833 41.4 96.1833 38.04C92.6313 34.68 90.8553 29.52 90.8553 22.56C90.8553 8.016 97.6473 0.743999 111.231 0.743999C113.679 0.743999 116.175 1.344 118.719 2.544C121.311 3.744 122.895 4.344 123.471 4.344C124.047 4.344 124.527 4.056 124.911 3.48C125.295 2.856 125.487 2.256 125.487 1.68H126.855V16.296H125.415C125.415 12.648 123.975 9.384 121.095 6.504C118.263 3.624 114.975 2.184 111.231 2.184C108.351 2.184 106.167 3.744 104.679 6.864C103.191 9.936 102.447 15.048 102.447 22.2C102.447 29.304 103.191 34.32 104.679 37.248C106.215 40.176 108.447 41.64 111.375 41.64C115.983 41.64 118.287 37.536 118.287 29.328V24H113.751V22.56H131.031V24H127.647V42H126.279Z" fill="#FAA541"/>
<path d="M7.49 48.174C7.49 48.5193 7.42 48.8553 7.28 49.182C7.14933 49.4993 6.95333 49.7747 6.692 50.008C6.44 50.232 6.132 50.3767 5.768 50.442C6.23467 50.5073 6.62667 50.6707 6.944 50.932C7.27067 51.184 7.518 51.5013 7.686 51.884C7.86333 52.2667 7.952 52.6867 7.952 53.144C7.952 53.7507 7.84 54.2453 7.616 54.628C7.392 55.0013 7.08867 55.2907 6.706 55.496C6.32333 55.692 5.894 55.8273 5.418 55.902C4.942 55.9673 4.45667 56 3.962 56H1.19V46.732C1.19 46.7227 1.17133 46.648 1.134 46.508C1.106 46.368 1.078 46.2233 1.05 46.074C1.022 45.9247 1.00333 45.836 0.994 45.808H4.396C4.79733 45.808 5.18 45.8453 5.544 45.92C5.91733 45.9853 6.24867 46.1067 6.538 46.284C6.83667 46.4613 7.07 46.704 7.238 47.012C7.406 47.3107 7.49 47.698 7.49 48.174ZM6.132 48.202C6.132 47.8287 6.048 47.5393 5.88 47.334C5.72133 47.1287 5.50667 46.984 5.236 46.9C4.96533 46.816 4.67133 46.774 4.354 46.774H2.492V50.022H3.99C4.42867 50.022 4.80667 49.966 5.124 49.854C5.44133 49.742 5.68867 49.5553 5.866 49.294C6.04333 49.0233 6.132 48.6593 6.132 48.202ZM6.566 52.934C6.566 52.458 6.44 52.08 6.188 51.8C5.94533 51.5107 5.628 51.3053 5.236 51.184C4.85333 51.0533 4.45667 50.988 4.046 50.988H2.492V55.034H4.046C4.54067 55.034 4.97467 54.978 5.348 54.866C5.73067 54.7447 6.02933 54.53 6.244 54.222C6.45867 53.914 6.566 53.4847 6.566 52.934ZM12.1416 48.874C12.8789 48.874 13.4343 49.0747 13.8076 49.476C14.1809 49.8773 14.3676 50.442 14.3676 51.17V54.656C14.3676 54.852 14.4049 54.9873 14.4796 55.062C14.5543 55.1273 14.6429 55.16 14.7456 55.16C14.8296 55.16 14.9183 55.1507 15.0116 55.132C15.1049 55.104 15.1936 55.0713 15.2776 55.034L15.5296 55.79C15.3803 55.874 15.1889 55.9487 14.9556 56.014C14.7316 56.0887 14.4983 56.126 14.2556 56.126C14.0129 56.126 13.7936 56.0607 13.5976 55.93C13.4016 55.79 13.2803 55.538 13.2336 55.174C12.9629 55.4633 12.6456 55.7013 12.2816 55.888C11.9176 56.0653 11.5349 56.154 11.1336 56.154C10.5829 56.154 10.1256 55.9907 9.76161 55.664C9.39761 55.3373 9.21561 54.8893 9.21561 54.32C9.21561 53.788 9.34161 53.3633 9.59361 53.046C9.85494 52.7287 10.1909 52.4907 10.6016 52.332C11.0123 52.1733 11.4463 52.066 11.9036 52.01C12.3703 51.954 12.8043 51.926 13.2056 51.926V51.184C13.2056 50.9227 13.1729 50.6893 13.1076 50.484C13.0423 50.2693 12.9256 50.1013 12.7576 49.98C12.5896 49.8493 12.3516 49.784 12.0436 49.784C11.6889 49.784 11.3483 49.854 11.0216 49.994C10.6949 50.134 10.3683 50.3393 10.0416 50.61L9.46761 49.784C9.85028 49.476 10.2703 49.2473 10.7276 49.098C11.1849 48.9487 11.6563 48.874 12.1416 48.874ZM13.2056 52.836C12.9536 52.836 12.6689 52.85 12.3516 52.878C12.0343 52.8967 11.7263 52.9527 11.4276 53.046C11.1289 53.13 10.8816 53.27 10.6856 53.466C10.4989 53.662 10.4056 53.9327 10.4056 54.278C10.4056 54.586 10.5083 54.8147 10.7136 54.964C10.9283 55.104 11.1943 55.174 11.5116 55.174C11.8476 55.174 12.1416 55.0807 12.3936 54.894C12.6456 54.7073 12.8416 54.4693 12.9816 54.18C13.1309 53.8907 13.2056 53.592 13.2056 53.284V52.836ZM19.3536 48.874C19.7082 48.874 20.0629 48.9347 20.4176 49.056C20.7816 49.168 21.1362 49.3453 21.4816 49.588L20.8516 50.4C20.5902 50.1853 20.3336 50.0313 20.0816 49.938C19.8296 49.8353 19.5869 49.784 19.3536 49.784C19.0736 49.784 18.8122 49.8493 18.5696 49.98C18.3362 50.1107 18.1262 50.2973 17.9396 50.54C17.7622 50.7733 17.6222 51.058 17.5196 51.394C17.4262 51.73 17.3796 52.1033 17.3796 52.514C17.3796 53.3913 17.5756 54.0633 17.9676 54.53C18.3689 54.9967 18.8729 55.23 19.4796 55.23C19.7502 55.23 20.0116 55.188 20.2636 55.104C20.5249 55.02 20.7956 54.8987 21.0756 54.74L21.4536 55.482C21.0802 55.7153 20.7209 55.888 20.3756 56C20.0302 56.1213 19.6429 56.182 19.2136 56.182C18.6162 56.182 18.0842 56.0327 17.6176 55.734C17.1602 55.426 16.7962 54.992 16.5256 54.432C16.2642 53.872 16.1336 53.214 16.1336 52.458C16.1336 51.73 16.2782 51.1 16.5676 50.568C16.8662 50.0267 17.2582 49.6113 17.7436 49.322C18.2382 49.0233 18.7749 48.874 19.3536 48.874ZM24.1163 45.332V51.912L26.7203 49.042H27.9663L25.2923 51.968L28.3443 56H26.9583L24.1163 52.22V56H22.9543V46.158L22.7723 45.332H24.1163ZM31.3945 48.874C31.6651 48.874 31.9218 48.9067 32.1645 48.972C32.4165 49.0373 32.6731 49.07 32.9345 49.07C33.2891 49.07 33.6485 49.0513 34.0125 49.014C34.3765 48.9673 34.7591 48.916 35.1605 48.86L34.9085 49.868H33.7885C33.7231 49.868 33.6531 49.868 33.5785 49.868C33.5131 49.8587 33.4478 49.8493 33.3825 49.84C33.5411 50.0547 33.6578 50.2787 33.7325 50.512C33.8165 50.7453 33.8585 50.9833 33.8585 51.226C33.8585 51.6927 33.7558 52.1127 33.5505 52.486C33.3451 52.8593 33.0418 53.1533 32.6405 53.368C32.2485 53.5733 31.7678 53.676 31.1985 53.676C30.9651 53.676 30.7598 53.7367 30.5825 53.858C30.4051 53.9793 30.3165 54.166 30.3165 54.418C30.3165 54.586 30.3585 54.7073 30.4425 54.782C30.5358 54.8473 30.6478 54.8847 30.7785 54.894C30.9091 54.9033 31.0398 54.908 31.1705 54.908H32.5285C32.7711 54.908 33.0185 54.9267 33.2705 54.964C33.5318 54.992 33.7698 55.0573 33.9845 55.16C34.1991 55.2533 34.3718 55.398 34.5025 55.594C34.6425 55.7807 34.7125 56.0373 34.7125 56.364C34.7125 56.8773 34.6098 57.316 34.4045 57.68C34.1991 58.044 33.9238 58.338 33.5785 58.562C33.2331 58.7953 32.8458 58.9633 32.4165 59.066C31.9871 59.1687 31.5531 59.22 31.1145 59.22C30.8531 59.22 30.5778 59.1873 30.2885 59.122C29.9991 59.066 29.7238 58.968 29.4625 58.828C29.2105 58.6973 29.0051 58.52 28.8465 58.296C28.6878 58.072 28.6085 57.792 28.6085 57.456C28.6085 57.1013 28.7158 56.7887 28.9305 56.518C29.1545 56.2473 29.4111 56.0187 29.7005 55.832V55.79C29.4951 55.6873 29.3318 55.5473 29.2105 55.37C29.0985 55.1833 29.0425 54.9873 29.0425 54.782C29.0425 54.6607 29.0891 54.5487 29.1825 54.446C29.2758 54.334 29.3925 54.1893 29.5325 54.012C29.6818 53.8347 29.8405 53.592 30.0085 53.284C29.6818 53.06 29.4205 52.7753 29.2245 52.43C29.0285 52.0753 28.9305 51.6973 28.9305 51.296C28.9305 50.8387 29.0425 50.428 29.2665 50.064C29.4905 49.7 29.7891 49.4107 30.1625 49.196C30.5451 48.9813 30.9558 48.874 31.3945 48.874ZM31.4085 49.714C31.1845 49.714 30.9745 49.784 30.7785 49.924C30.5918 50.064 30.4378 50.2507 30.3165 50.484C30.2045 50.7173 30.1485 50.9833 30.1485 51.282C30.1485 51.5807 30.2045 51.8513 30.3165 52.094C30.4285 52.3273 30.5778 52.514 30.7645 52.654C30.9605 52.794 31.1705 52.864 31.3945 52.864C31.7771 52.864 32.0805 52.7193 32.3045 52.43C32.5378 52.1407 32.6545 51.7627 32.6545 51.296C32.6545 50.9973 32.5938 50.7313 32.4725 50.498C32.3605 50.2553 32.2111 50.064 32.0245 49.924C31.8378 49.784 31.6325 49.714 31.4085 49.714ZM30.5265 56.014C30.3491 56.1447 30.1858 56.322 30.0365 56.546C29.8871 56.7793 29.8125 57.0033 29.8125 57.218C29.8125 57.442 29.8918 57.6333 30.0505 57.792C30.2185 57.9507 30.4191 58.0673 30.6525 58.142C30.8951 58.226 31.1191 58.268 31.3245 58.268C31.5671 58.268 31.8238 58.24 32.0945 58.184C32.3651 58.1373 32.6171 58.058 32.8505 57.946C33.0838 57.834 33.2705 57.68 33.4105 57.484C33.5598 57.288 33.6345 57.05 33.6345 56.77C33.6345 56.5273 33.5598 56.35 33.4105 56.238C33.2611 56.1353 33.0745 56.07 32.8505 56.042C32.6358 56.0233 32.4211 56.014 32.2065 56.014H30.5265ZM36.9323 48.916C37.1003 49.3267 37.2077 49.7607 37.2543 50.218C37.497 49.8353 37.8237 49.5227 38.2343 49.28C38.645 49.0373 39.079 48.916 39.5363 48.916L39.2563 50.148C38.8083 50.148 38.4257 50.2647 38.1083 50.498C37.8003 50.7313 37.525 51.0253 37.2823 51.38V56H36.1203V50.96C36.1203 50.7733 36.1063 50.5633 36.0783 50.33C36.0503 50.0967 36.0037 49.868 35.9383 49.644C35.873 49.42 35.7843 49.2287 35.6723 49.07L36.9323 48.916ZM43.5772 56.182C42.8959 56.182 42.3219 56.014 41.8552 55.678C41.3979 55.3327 41.0525 54.8847 40.8192 54.334C40.5952 53.7833 40.4832 53.1953 40.4832 52.57C40.4832 52.1033 40.5532 51.6507 40.6932 51.212C40.8332 50.764 41.0385 50.3673 41.3092 50.022C41.5799 49.6673 41.9112 49.3873 42.3032 49.182C42.7045 48.9767 43.1572 48.874 43.6612 48.874C44.3519 48.874 44.9259 49.042 45.3832 49.378C45.8499 49.714 46.1952 50.1573 46.4192 50.708C46.6525 51.2587 46.7692 51.8513 46.7692 52.486C46.7692 52.962 46.6992 53.424 46.5592 53.872C46.4192 54.3107 46.2139 54.7027 45.9432 55.048C45.6819 55.3933 45.3505 55.6687 44.9492 55.874C44.5572 56.0793 44.0999 56.182 43.5772 56.182ZM43.5912 55.3C43.9552 55.3 44.2585 55.216 44.5012 55.048C44.7532 54.8707 44.9539 54.642 45.1032 54.362C45.2619 54.082 45.3739 53.7833 45.4392 53.466C45.5045 53.1393 45.5372 52.8267 45.5372 52.528C45.5372 52.22 45.5045 51.9073 45.4392 51.59C45.3832 51.2633 45.2852 50.9647 45.1452 50.694C45.0052 50.414 44.8092 50.19 44.5572 50.022C44.3145 49.8447 44.0112 49.756 43.6472 49.756C43.2832 49.756 42.9752 49.8447 42.7232 50.022C42.4805 50.19 42.2845 50.414 42.1352 50.694C41.9859 50.974 41.8785 51.2773 41.8132 51.604C41.7479 51.9213 41.7152 52.2293 41.7152 52.528C41.7152 52.8173 41.7479 53.1253 41.8132 53.452C41.8785 53.7693 41.9812 54.068 42.1212 54.348C42.2705 54.628 42.4665 54.8567 42.7092 55.034C42.9519 55.2113 43.2459 55.3 43.5912 55.3ZM49.6687 49.042V53.326C49.6687 53.5967 49.6921 53.8767 49.7387 54.166C49.7854 54.446 49.8881 54.6793 50.0467 54.866C50.2147 55.0527 50.4761 55.146 50.8307 55.146C51.1761 55.146 51.4887 55.0713 51.7687 54.922C52.0581 54.7727 52.2914 54.5673 52.4687 54.306C52.6461 54.0353 52.7347 53.7227 52.7347 53.368V49.868C52.7347 49.8587 52.7207 49.7933 52.6927 49.672C52.6647 49.5413 52.6367 49.4107 52.6087 49.28C52.5807 49.14 52.5621 49.0607 52.5527 49.042H53.8967V54.642C53.8967 54.8193 53.9247 54.95 53.9807 55.034C54.0461 55.118 54.1441 55.16 54.2747 55.16C54.4054 55.16 54.5827 55.118 54.8067 55.034L55.0587 55.79C54.8721 55.8927 54.6621 55.972 54.4287 56.028C54.2047 56.0933 53.9901 56.126 53.7847 56.126C53.5421 56.126 53.3274 56.056 53.1407 55.916C52.9541 55.776 52.8327 55.5287 52.7767 55.174C52.5061 55.454 52.1794 55.692 51.7967 55.888C51.4234 56.084 51.0361 56.182 50.6347 56.182C50.1214 56.182 49.7061 56.0747 49.3887 55.86C49.0807 55.6453 48.8567 55.356 48.7167 54.992C48.5767 54.6187 48.5067 54.1893 48.5067 53.704V49.868L48.3247 49.042H49.6687ZM57.057 48.93C57.1223 49.0887 57.1783 49.252 57.225 49.42C57.2717 49.588 57.3043 49.756 57.323 49.924C57.603 49.644 57.9343 49.4013 58.317 49.196C58.6997 48.9813 59.0917 48.874 59.493 48.874C60.0063 48.874 60.417 48.9813 60.725 49.196C61.0423 49.4107 61.271 49.7047 61.411 50.078C61.551 50.442 61.621 50.8667 61.621 51.352V56H60.473V51.73C60.473 51.4407 60.4497 51.156 60.403 50.876C60.3657 50.596 60.263 50.3673 60.095 50.19C59.9363 50.0033 59.6703 49.91 59.297 49.91C59.073 49.91 58.8443 49.9567 58.611 50.05C58.3777 50.134 58.1583 50.246 57.953 50.386C57.7477 50.526 57.561 50.6753 57.393 50.834V56H56.245V51.072C56.245 50.8853 56.231 50.6707 56.203 50.428C56.175 50.176 56.1283 49.9333 56.063 49.7C55.9977 49.4573 55.9043 49.2567 55.783 49.098L57.057 48.93ZM66.5193 48.888C66.8366 48.888 67.1539 48.9393 67.4713 49.042C67.7886 49.1447 68.0639 49.3033 68.2973 49.518C68.2879 49.3873 68.2786 49.2613 68.2693 49.14C68.2693 49.0093 68.2693 48.8833 68.2693 48.762V46.158L68.0733 45.332H69.4173V53.998C69.4173 54.194 69.4313 54.4133 69.4593 54.656C69.4873 54.8987 69.5339 55.1367 69.5993 55.37C69.6646 55.594 69.7486 55.7947 69.8512 55.972L68.6193 56.126C68.5539 55.9673 68.4979 55.8087 68.4513 55.65C68.4046 55.4913 68.3719 55.3327 68.3533 55.174C68.1106 55.4913 67.8073 55.7387 67.4433 55.916C67.0793 56.0933 66.6966 56.182 66.2953 56.182C65.8099 56.182 65.3853 56.0793 65.0213 55.874C64.6573 55.6687 64.3539 55.3933 64.1113 55.048C63.8779 54.6933 63.7006 54.306 63.5793 53.886C63.4673 53.4567 63.4113 53.0227 63.4113 52.584C63.4113 52.108 63.4719 51.6507 63.5933 51.212C63.7239 50.764 63.9153 50.3673 64.1673 50.022C64.4286 49.6767 64.7553 49.4013 65.1473 49.196C65.5393 48.9907 65.9966 48.888 66.5193 48.888ZM66.5473 49.84C66.1833 49.84 65.8753 49.9193 65.6233 50.078C65.3806 50.2367 65.1846 50.4467 65.0353 50.708C64.8953 50.9693 64.7926 51.2587 64.7273 51.576C64.6713 51.884 64.6433 52.192 64.6433 52.5C64.6433 52.8173 64.6759 53.1347 64.7413 53.452C64.8159 53.76 64.9279 54.0447 65.0773 54.306C65.2359 54.5673 65.4413 54.7773 65.6933 54.936C65.9546 55.0853 66.2719 55.16 66.6453 55.16C66.9719 55.16 67.2706 55.0667 67.5413 54.88C67.8213 54.684 68.0639 54.4693 68.2693 54.236V51.884C68.2693 51.5107 68.2086 51.17 68.0873 50.862C67.9753 50.554 67.7933 50.3067 67.5413 50.12C67.2893 49.9333 66.9579 49.84 66.5473 49.84ZM79.2045 45.668C79.5685 45.668 79.9558 45.71 80.3665 45.794C80.7865 45.8687 81.1878 45.9947 81.5705 46.172C81.9625 46.34 82.2891 46.5593 82.5505 46.83L81.8085 47.698C81.5191 47.4647 81.2485 47.2733 80.9965 47.124C80.7445 46.9747 80.4785 46.8627 80.1985 46.788C79.9278 46.7133 79.5965 46.676 79.2045 46.676C78.5885 46.676 78.0658 46.7927 77.6365 47.026C77.2165 47.2593 76.8711 47.5767 76.6005 47.978C76.3391 48.3793 76.1478 48.832 76.0265 49.336C75.9051 49.84 75.8445 50.3627 75.8445 50.904C75.8445 51.4173 75.9005 51.926 76.0125 52.43C76.1245 52.9247 76.3065 53.3773 76.5585 53.788C76.8105 54.1987 77.1418 54.5253 77.5525 54.768C77.9631 55.0107 78.4671 55.132 79.0645 55.132C79.5591 55.132 79.9838 55.0247 80.3385 54.81C80.7025 54.586 80.9825 54.2873 81.1785 53.914C81.3838 53.5313 81.4865 53.102 81.4865 52.626V51.702H78.9805L79.1485 50.75H82.8025V53.676C82.8025 54.0587 82.8165 54.446 82.8445 54.838C82.8818 55.23 82.9098 55.6173 82.9285 56H82.2285L81.7805 54.936C81.3698 55.3747 80.9265 55.692 80.4505 55.888C79.9838 56.0747 79.4471 56.168 78.8405 56.168C78.1031 56.168 77.4591 56.0327 76.9085 55.762C76.3671 55.482 75.9145 55.104 75.5505 54.628C75.1865 54.1427 74.9158 53.592 74.7385 52.976C74.5611 52.36 74.4725 51.7113 74.4725 51.03C74.4725 50.2833 74.5705 49.588 74.7665 48.944C74.9625 48.2907 75.2565 47.7213 75.6485 47.236C76.0405 46.7413 76.5305 46.3587 77.1185 46.088C77.7158 45.808 78.4111 45.668 79.2045 45.668ZM87.4929 48.874C88.0529 48.874 88.5242 48.9907 88.9069 49.224C89.2896 49.448 89.5742 49.7653 89.7609 50.176C89.9569 50.5773 90.0549 51.0487 90.0549 51.59C90.0549 51.7207 90.0456 51.856 90.0269 51.996C90.0176 52.1267 90.0036 52.2667 89.9849 52.416H85.5609C85.5609 53.3027 85.7569 53.9887 86.1489 54.474C86.5409 54.9593 87.0636 55.202 87.7169 55.202C87.9876 55.202 88.2676 55.16 88.5569 55.076C88.8556 54.992 89.1636 54.866 89.4809 54.698L89.9149 55.398C89.5882 55.6593 89.2196 55.8553 88.8089 55.986C88.3982 56.1167 87.9829 56.182 87.5629 56.182C87.0122 56.182 86.5316 56.084 86.1209 55.888C85.7196 55.6827 85.3836 55.412 85.1129 55.076C84.8516 54.7307 84.6556 54.3433 84.5249 53.914C84.3942 53.4847 84.3289 53.046 84.3289 52.598C84.3289 52.1313 84.3942 51.6787 84.5249 51.24C84.6556 50.8013 84.8516 50.4047 85.1129 50.05C85.3836 49.686 85.7149 49.4013 86.1069 49.196C86.4989 48.9813 86.9609 48.874 87.4929 48.874ZM87.3809 49.756C87.0636 49.756 86.7836 49.8447 86.5409 50.022C86.2982 50.1993 86.1022 50.428 85.9529 50.708C85.8036 50.9787 85.7009 51.2587 85.6449 51.548H88.8369C88.8462 51.156 88.7902 50.8293 88.6689 50.568C88.5569 50.2973 88.3889 50.0967 88.1649 49.966C87.9502 49.826 87.6889 49.756 87.3809 49.756ZM92.5629 48.93C92.6282 49.0887 92.6842 49.252 92.7309 49.42C92.7775 49.588 92.8102 49.756 92.8289 49.924C93.1089 49.644 93.4402 49.4013 93.8229 49.196C94.2055 48.9813 94.5975 48.874 94.9989 48.874C95.5122 48.874 95.9229 48.9813 96.2309 49.196C96.5482 49.4107 96.7769 49.7047 96.9169 50.078C97.0569 50.442 97.1269 50.8667 97.1269 51.352V56H95.9789V51.73C95.9789 51.4407 95.9555 51.156 95.9089 50.876C95.8715 50.596 95.7689 50.3673 95.6009 50.19C95.4422 50.0033 95.1762 49.91 94.8029 49.91C94.5789 49.91 94.3502 49.9567 94.1169 50.05C93.8835 50.134 93.6642 50.246 93.4589 50.386C93.2535 50.526 93.0669 50.6753 92.8989 50.834V56H91.7509V51.072C91.7509 50.8853 91.7369 50.6707 91.7089 50.428C91.6809 50.176 91.6342 49.9333 91.5689 49.7C91.5035 49.4573 91.4102 49.2567 91.2889 49.098L92.5629 48.93ZM102.067 48.874C102.627 48.874 103.098 48.9907 103.481 49.224C103.864 49.448 104.148 49.7653 104.335 50.176C104.531 50.5773 104.629 51.0487 104.629 51.59C104.629 51.7207 104.62 51.856 104.601 51.996C104.592 52.1267 104.578 52.2667 104.559 52.416H100.135C100.135 53.3027 100.331 53.9887 100.723 54.474C101.115 54.9593 101.638 55.202 102.291 55.202C102.562 55.202 102.842 55.16 103.131 55.076C103.43 54.992 103.738 54.866 104.055 54.698L104.489 55.398C104.162 55.6593 103.794 55.8553 103.383 55.986C102.972 56.1167 102.557 56.182 102.137 56.182C101.586 56.182 101.106 56.084 100.695 55.888C100.294 55.6827 99.9578 55.412 99.6871 55.076C99.4258 54.7307 99.2298 54.3433 99.0991 53.914C98.9684 53.4847 98.9031 53.046 98.9031 52.598C98.9031 52.1313 98.9684 51.6787 99.0991 51.24C99.2298 50.8013 99.4258 50.4047 99.6871 50.05C99.9578 49.686 100.289 49.4013 100.681 49.196C101.073 48.9813 101.535 48.874 102.067 48.874ZM101.955 49.756C101.638 49.756 101.358 49.8447 101.115 50.022C100.872 50.1993 100.676 50.428 100.527 50.708C100.378 50.9787 100.275 51.2587 100.219 51.548H103.411C103.42 51.156 103.364 50.8293 103.243 50.568C103.131 50.2973 102.963 50.0967 102.739 49.966C102.524 49.826 102.263 49.756 101.955 49.756ZM107.151 48.916C107.319 49.3267 107.426 49.7607 107.473 50.218C107.716 49.8353 108.042 49.5227 108.453 49.28C108.864 49.0373 109.298 48.916 109.755 48.916L109.475 50.148C109.027 50.148 108.644 50.2647 108.327 50.498C108.019 50.7313 107.744 51.0253 107.501 51.38V56H106.339V50.96C106.339 50.7733 106.325 50.5633 106.297 50.33C106.269 50.0967 106.222 49.868 106.157 49.644C106.092 49.42 106.003 49.2287 105.891 49.07L107.151 48.916ZM113.423 48.874C114.16 48.874 114.716 49.0747 115.089 49.476C115.462 49.8773 115.649 50.442 115.649 51.17V54.656C115.649 54.852 115.686 54.9873 115.761 55.062C115.836 55.1273 115.924 55.16 116.027 55.16C116.111 55.16 116.2 55.1507 116.293 55.132C116.386 55.104 116.475 55.0713 116.559 55.034L116.811 55.79C116.662 55.874 116.47 55.9487 116.237 56.014C116.013 56.0887 115.78 56.126 115.537 56.126C115.294 56.126 115.075 56.0607 114.879 55.93C114.683 55.79 114.562 55.538 114.515 55.174C114.244 55.4633 113.927 55.7013 113.563 55.888C113.199 56.0653 112.816 56.154 112.415 56.154C111.864 56.154 111.407 55.9907 111.043 55.664C110.679 55.3373 110.497 54.8893 110.497 54.32C110.497 53.788 110.623 53.3633 110.875 53.046C111.136 52.7287 111.472 52.4907 111.883 52.332C112.294 52.1733 112.728 52.066 113.185 52.01C113.652 51.954 114.086 51.926 114.487 51.926V51.184C114.487 50.9227 114.454 50.6893 114.389 50.484C114.324 50.2693 114.207 50.1013 114.039 49.98C113.871 49.8493 113.633 49.784 113.325 49.784C112.97 49.784 112.63 49.854 112.303 49.994C111.976 50.134 111.65 50.3393 111.323 50.61L110.749 49.784C111.132 49.476 111.552 49.2473 112.009 49.098C112.466 48.9487 112.938 48.874 113.423 48.874ZM114.487 52.836C114.235 52.836 113.95 52.85 113.633 52.878C113.316 52.8967 113.008 52.9527 112.709 53.046C112.41 53.13 112.163 53.27 111.967 53.466C111.78 53.662 111.687 53.9327 111.687 54.278C111.687 54.586 111.79 54.8147 111.995 54.964C112.21 55.104 112.476 55.174 112.793 55.174C113.129 55.174 113.423 55.0807 113.675 54.894C113.927 54.7073 114.123 54.4693 114.263 54.18C114.412 53.8907 114.487 53.592 114.487 53.284V52.836ZM119.557 47.054C119.491 47.3713 119.431 47.7027 119.375 48.048C119.328 48.384 119.295 48.7153 119.277 49.042H121.097L120.859 49.924H119.277V54.376C119.277 54.5533 119.295 54.712 119.333 54.852C119.379 54.9827 119.454 55.0853 119.557 55.16C119.669 55.2253 119.823 55.258 120.019 55.258C120.168 55.258 120.317 55.244 120.467 55.216C120.616 55.188 120.761 55.1553 120.901 55.118L121.097 55.902C120.863 55.9673 120.639 56.0233 120.425 56.07C120.219 56.126 119.981 56.154 119.711 56.154C119.113 56.154 118.698 55.9953 118.465 55.678C118.231 55.3607 118.115 54.9173 118.115 54.348V49.924H117.079V49.224C117.359 49.2147 117.592 49.14 117.779 49C117.965 48.86 118.119 48.6827 118.241 48.468C118.362 48.244 118.46 48.0107 118.535 47.768C118.609 47.516 118.665 47.278 118.703 47.054H119.557ZM124.884 56.182C124.202 56.182 123.628 56.014 123.162 55.678C122.704 55.3327 122.359 54.8847 122.126 54.334C121.902 53.7833 121.79 53.1953 121.79 52.57C121.79 52.1033 121.86 51.6507 122 51.212C122.14 50.764 122.345 50.3673 122.616 50.022C122.886 49.6673 123.218 49.3873 123.61 49.182C124.011 48.9767 124.464 48.874 124.968 48.874C125.658 48.874 126.232 49.042 126.69 49.378C127.156 49.714 127.502 50.1573 127.726 50.708C127.959 51.2587 128.076 51.8513 128.076 52.486C128.076 52.962 128.006 53.424 127.866 53.872C127.726 54.3107 127.52 54.7027 127.25 55.048C126.988 55.3933 126.657 55.6687 126.256 55.874C125.864 56.0793 125.406 56.182 124.884 56.182ZM124.898 55.3C125.262 55.3 125.565 55.216 125.808 55.048C126.06 54.8707 126.26 54.642 126.41 54.362C126.568 54.082 126.68 53.7833 126.746 53.466C126.811 53.1393 126.844 52.8267 126.844 52.528C126.844 52.22 126.811 51.9073 126.746 51.59C126.69 51.2633 126.592 50.9647 126.452 50.694C126.312 50.414 126.116 50.19 125.864 50.022C125.621 49.8447 125.318 49.756 124.954 49.756C124.59 49.756 124.282 49.8447 124.03 50.022C123.787 50.19 123.591 50.414 123.442 50.694C123.292 50.974 123.185 51.2773 123.12 51.604C123.054 51.9213 123.022 52.2293 123.022 52.528C123.022 52.8173 123.054 53.1253 123.12 53.452C123.185 53.7693 123.288 54.068 123.428 54.348C123.577 54.628 123.773 54.8567 124.016 55.034C124.258 55.2113 124.552 55.3 124.898 55.3ZM130.544 48.916C130.712 49.3267 130.819 49.7607 130.866 50.218C131.108 49.8353 131.435 49.5227 131.846 49.28C132.256 49.0373 132.69 48.916 133.148 48.916L132.868 50.148C132.42 50.148 132.037 50.2647 131.72 50.498C131.412 50.7313 131.136 51.0253 130.894 51.38V56H129.732V50.96C129.732 50.7733 129.718 50.5633 129.69 50.33C129.662 50.0967 129.615 49.868 129.55 49.644C129.484 49.42 129.396 49.2287 129.284 49.07L130.544 48.916Z" fill="#FAA541"/>
</svg>
